<mxfile host="app.diagrams.net" agent="Mozilla/5.0 (Macintosh; Intel Mac OS X 10_15_7) AppleWebKit/537.36 (KHTML, like Gecko) Chrome/130.0.0.0 Safari/537.36" version="24.8.4">
  <diagram name="Page-1" id="5yACLu_tYYQ9U0vQjmjW">
    <mxGraphModel dx="1272" dy="775" grid="1" gridSize="10" guides="1" tooltips="1" connect="1" arrows="1" fold="1" page="1" pageScale="1" pageWidth="827" pageHeight="1169" math="0" shadow="0">
      <root>
        <mxCell id="0" />
        <mxCell id="1" parent="0" />
        <mxCell id="NyU2-a-IUpIsPOEJ186r-61" value="&lt;font style=&quot;font-size: 24px;&quot;&gt;0&lt;/font&gt;" style="rounded=0;whiteSpace=wrap;html=1;" parent="1" vertex="1">
          <mxGeometry x="410" y="170" width="80" height="80" as="geometry" />
        </mxCell>
        <mxCell id="NyU2-a-IUpIsPOEJ186r-62" value="&lt;span style=&quot;font-size: 24px;&quot;&gt;0&lt;/span&gt;" style="rounded=0;whiteSpace=wrap;html=1;" parent="1" vertex="1">
          <mxGeometry x="490" y="170" width="80" height="80" as="geometry" />
        </mxCell>
        <mxCell id="NyU2-a-IUpIsPOEJ186r-63" value="&lt;span style=&quot;font-size: 24px;&quot;&gt;1&lt;/span&gt;" style="rounded=0;whiteSpace=wrap;html=1;" parent="1" vertex="1">
          <mxGeometry x="570" y="170" width="80" height="80" as="geometry" />
        </mxCell>
        <mxCell id="NyU2-a-IUpIsPOEJ186r-64" value="&lt;font style=&quot;font-size: 24px;&quot;&gt;...&lt;/font&gt;" style="rounded=0;whiteSpace=wrap;html=1;" parent="1" vertex="1">
          <mxGeometry x="729.52" y="170" width="80" height="80" as="geometry" />
        </mxCell>
        <mxCell id="NyU2-a-IUpIsPOEJ186r-65" value="&lt;span style=&quot;font-size: 24px;&quot;&gt;1&lt;/span&gt;" style="rounded=0;whiteSpace=wrap;html=1;" parent="1" vertex="1">
          <mxGeometry x="810" y="170" width="80" height="80" as="geometry" />
        </mxCell>
        <mxCell id="NyU2-a-IUpIsPOEJ186r-66" value="&lt;span style=&quot;font-size: 24px;&quot;&gt;0&lt;/span&gt;" style="rounded=0;whiteSpace=wrap;html=1;" parent="1" vertex="1">
          <mxGeometry x="890" y="170" width="80" height="80" as="geometry" />
        </mxCell>
        <mxCell id="NyU2-a-IUpIsPOEJ186r-67" value="&lt;span style=&quot;font-size: 24px;&quot;&gt;0&lt;/span&gt;" style="rounded=0;whiteSpace=wrap;html=1;" parent="1" vertex="1">
          <mxGeometry x="970" y="170" width="80" height="80" as="geometry" />
        </mxCell>
        <mxCell id="NyU2-a-IUpIsPOEJ186r-68" value="&lt;span style=&quot;font-size: 24px;&quot;&gt;1&lt;/span&gt;" style="rounded=0;whiteSpace=wrap;html=1;" parent="1" vertex="1">
          <mxGeometry x="409.76" y="410.01" width="80" height="80" as="geometry" />
        </mxCell>
        <mxCell id="NyU2-a-IUpIsPOEJ186r-69" value="&lt;span style=&quot;font-size: 24px;&quot;&gt;1&lt;/span&gt;" style="rounded=0;whiteSpace=wrap;html=1;" parent="1" vertex="1">
          <mxGeometry x="489.76" y="410.01" width="80" height="80" as="geometry" />
        </mxCell>
        <mxCell id="NyU2-a-IUpIsPOEJ186r-70" value="&lt;span style=&quot;font-size: 24px;&quot;&gt;0&lt;/span&gt;" style="rounded=0;whiteSpace=wrap;html=1;" parent="1" vertex="1">
          <mxGeometry x="569.76" y="410.01" width="80" height="80" as="geometry" />
        </mxCell>
        <mxCell id="NyU2-a-IUpIsPOEJ186r-71" value="&lt;font style=&quot;font-size: 24px;&quot;&gt;...&lt;/font&gt;" style="rounded=0;whiteSpace=wrap;html=1;" parent="1" vertex="1">
          <mxGeometry x="729.28" y="410.01" width="80" height="80" as="geometry" />
        </mxCell>
        <mxCell id="NyU2-a-IUpIsPOEJ186r-75" value="&lt;font style=&quot;font-size: 24px;&quot;&gt;...&lt;/font&gt;" style="rounded=0;whiteSpace=wrap;html=1;" parent="1" vertex="1">
          <mxGeometry x="409.76" y="562.5" width="80" height="80" as="geometry" />
        </mxCell>
        <mxCell id="NyU2-a-IUpIsPOEJ186r-76" value="&lt;font style=&quot;font-size: 24px;&quot;&gt;...&lt;/font&gt;" style="rounded=0;whiteSpace=wrap;html=1;" parent="1" vertex="1">
          <mxGeometry x="489.76" y="562.5" width="80" height="80" as="geometry" />
        </mxCell>
        <mxCell id="NyU2-a-IUpIsPOEJ186r-77" value="&lt;font style=&quot;font-size: 24px;&quot;&gt;...&lt;/font&gt;" style="rounded=0;whiteSpace=wrap;html=1;" parent="1" vertex="1">
          <mxGeometry x="569.76" y="562.5" width="80" height="80" as="geometry" />
        </mxCell>
        <mxCell id="NyU2-a-IUpIsPOEJ186r-78" value="&lt;font style=&quot;font-size: 24px;&quot;&gt;...&lt;/font&gt;" style="rounded=0;whiteSpace=wrap;html=1;" parent="1" vertex="1">
          <mxGeometry x="729.28" y="562.5" width="80" height="80" as="geometry" />
        </mxCell>
        <mxCell id="NyU2-a-IUpIsPOEJ186r-89" value="" style="strokeWidth=2;html=1;shape=mxgraph.flowchart.annotation_2;align=left;labelPosition=right;pointerEvents=1;rotation=-180;" parent="1" vertex="1">
          <mxGeometry x="1070" y="205" width="50" height="490.02" as="geometry" />
        </mxCell>
        <mxCell id="NyU2-a-IUpIsPOEJ186r-90" value="&lt;font style=&quot;font-size: 24px;&quot;&gt;24 rows&lt;/font&gt;" style="text;html=1;align=center;verticalAlign=middle;resizable=0;points=[];autosize=1;strokeColor=none;fillColor=none;" parent="1" vertex="1">
          <mxGeometry x="1131" y="430.01" width="110" height="40" as="geometry" />
        </mxCell>
        <mxCell id="NyU2-a-IUpIsPOEJ186r-91" value="" style="strokeWidth=2;html=1;shape=mxgraph.flowchart.annotation_2;align=left;labelPosition=right;pointerEvents=1;rotation=90;" parent="1" vertex="1">
          <mxGeometry x="711.27" y="-176.25" width="50" height="602.52" as="geometry" />
        </mxCell>
        <mxCell id="NyU2-a-IUpIsPOEJ186r-92" value="&lt;font style=&quot;font-size: 24px;&quot;&gt;1290 columns&lt;/font&gt;" style="text;html=1;align=center;verticalAlign=middle;resizable=0;points=[];autosize=1;strokeColor=none;fillColor=none;" parent="1" vertex="1">
          <mxGeometry x="649.52" y="40" width="170" height="40" as="geometry" />
        </mxCell>
        <mxCell id="l5VGxjxB3sV_cJbCo6qy-1" value="&lt;span style=&quot;font-size: 24px;&quot;&gt;1&lt;/span&gt;" style="rounded=0;whiteSpace=wrap;html=1;" parent="1" vertex="1">
          <mxGeometry x="649.52" y="169.99999999999997" width="80" height="80" as="geometry" />
        </mxCell>
        <mxCell id="l5VGxjxB3sV_cJbCo6qy-2" value="&lt;span style=&quot;font-size: 24px;&quot;&gt;0&lt;/span&gt;" style="rounded=0;whiteSpace=wrap;html=1;" parent="1" vertex="1">
          <mxGeometry x="649.28" y="410.01" width="80" height="80" as="geometry" />
        </mxCell>
        <mxCell id="l5VGxjxB3sV_cJbCo6qy-3" value="&lt;font style=&quot;font-size: 24px;&quot;&gt;...&lt;/font&gt;" style="rounded=0;whiteSpace=wrap;html=1;" parent="1" vertex="1">
          <mxGeometry x="649.28" y="562.5" width="80" height="80" as="geometry" />
        </mxCell>
        <mxCell id="l5VGxjxB3sV_cJbCo6qy-5" value="&lt;span style=&quot;font-size: 24px;&quot;&gt;0&lt;/span&gt;" style="rounded=0;whiteSpace=wrap;html=1;" parent="1" vertex="1">
          <mxGeometry x="809.76" y="410.01" width="80" height="80" as="geometry" />
        </mxCell>
        <mxCell id="l5VGxjxB3sV_cJbCo6qy-6" value="&lt;span style=&quot;font-size: 24px;&quot;&gt;1&lt;/span&gt;" style="rounded=0;whiteSpace=wrap;html=1;" parent="1" vertex="1">
          <mxGeometry x="889.76" y="410.01" width="80" height="80" as="geometry" />
        </mxCell>
        <mxCell id="l5VGxjxB3sV_cJbCo6qy-7" value="&lt;span style=&quot;font-size: 24px;&quot;&gt;1&lt;/span&gt;" style="rounded=0;whiteSpace=wrap;html=1;" parent="1" vertex="1">
          <mxGeometry x="969.76" y="410.01" width="80" height="80" as="geometry" />
        </mxCell>
        <mxCell id="l5VGxjxB3sV_cJbCo6qy-8" value="&lt;font style=&quot;font-size: 24px;&quot;&gt;0&lt;/font&gt;" style="rounded=0;whiteSpace=wrap;html=1;" parent="1" vertex="1">
          <mxGeometry x="409.76" y="482.5" width="80" height="80" as="geometry" />
        </mxCell>
        <mxCell id="l5VGxjxB3sV_cJbCo6qy-9" value="&lt;span style=&quot;font-size: 24px;&quot;&gt;0&lt;/span&gt;" style="rounded=0;whiteSpace=wrap;html=1;" parent="1" vertex="1">
          <mxGeometry x="489.76" y="482.5" width="80" height="80" as="geometry" />
        </mxCell>
        <mxCell id="l5VGxjxB3sV_cJbCo6qy-10" value="&lt;span style=&quot;font-size: 24px;&quot;&gt;1&lt;/span&gt;" style="rounded=0;whiteSpace=wrap;html=1;" parent="1" vertex="1">
          <mxGeometry x="569.76" y="482.5" width="80" height="80" as="geometry" />
        </mxCell>
        <mxCell id="l5VGxjxB3sV_cJbCo6qy-11" value="&lt;font style=&quot;font-size: 24px;&quot;&gt;...&lt;/font&gt;" style="rounded=0;whiteSpace=wrap;html=1;" parent="1" vertex="1">
          <mxGeometry x="729.28" y="482.5" width="80" height="80" as="geometry" />
        </mxCell>
        <mxCell id="l5VGxjxB3sV_cJbCo6qy-12" value="&lt;span style=&quot;font-size: 24px;&quot;&gt;1&lt;/span&gt;" style="rounded=0;whiteSpace=wrap;html=1;" parent="1" vertex="1">
          <mxGeometry x="809.76" y="482.5" width="80" height="80" as="geometry" />
        </mxCell>
        <mxCell id="l5VGxjxB3sV_cJbCo6qy-13" value="&lt;span style=&quot;font-size: 24px;&quot;&gt;0&lt;/span&gt;" style="rounded=0;whiteSpace=wrap;html=1;" parent="1" vertex="1">
          <mxGeometry x="889.76" y="482.5" width="80" height="80" as="geometry" />
        </mxCell>
        <mxCell id="l5VGxjxB3sV_cJbCo6qy-14" value="&lt;span style=&quot;font-size: 24px;&quot;&gt;0&lt;/span&gt;" style="rounded=0;whiteSpace=wrap;html=1;" parent="1" vertex="1">
          <mxGeometry x="969.76" y="482.5" width="80" height="80" as="geometry" />
        </mxCell>
        <mxCell id="l5VGxjxB3sV_cJbCo6qy-16" value="&lt;span style=&quot;font-size: 24px;&quot;&gt;1&lt;/span&gt;" style="rounded=0;whiteSpace=wrap;html=1;" parent="1" vertex="1">
          <mxGeometry x="649.28" y="482.5" width="80" height="80" as="geometry" />
        </mxCell>
        <mxCell id="l5VGxjxB3sV_cJbCo6qy-22" value="&lt;font style=&quot;font-size: 24px;&quot;&gt;...&lt;/font&gt;" style="rounded=0;whiteSpace=wrap;html=1;" parent="1" vertex="1">
          <mxGeometry x="810" y="562.5" width="80" height="80" as="geometry" />
        </mxCell>
        <mxCell id="l5VGxjxB3sV_cJbCo6qy-23" value="&lt;font style=&quot;font-size: 24px;&quot;&gt;...&lt;/font&gt;" style="rounded=0;whiteSpace=wrap;html=1;" parent="1" vertex="1">
          <mxGeometry x="890" y="562.5" width="80" height="80" as="geometry" />
        </mxCell>
        <mxCell id="l5VGxjxB3sV_cJbCo6qy-24" value="&lt;font style=&quot;font-size: 24px;&quot;&gt;...&lt;/font&gt;" style="rounded=0;whiteSpace=wrap;html=1;" parent="1" vertex="1">
          <mxGeometry x="970" y="562.5" width="80" height="80" as="geometry" />
        </mxCell>
        <mxCell id="l5VGxjxB3sV_cJbCo6qy-27" value="&lt;font style=&quot;font-size: 24px;&quot;&gt;1&lt;/font&gt;" style="rounded=0;whiteSpace=wrap;html=1;" parent="1" vertex="1">
          <mxGeometry x="409.76" y="642.5" width="80" height="80" as="geometry" />
        </mxCell>
        <mxCell id="l5VGxjxB3sV_cJbCo6qy-28" value="&lt;span style=&quot;font-size: 24px;&quot;&gt;1&lt;/span&gt;" style="rounded=0;whiteSpace=wrap;html=1;" parent="1" vertex="1">
          <mxGeometry x="489.76" y="642.5" width="80" height="80" as="geometry" />
        </mxCell>
        <mxCell id="l5VGxjxB3sV_cJbCo6qy-29" value="&lt;span style=&quot;font-size: 24px;&quot;&gt;0&lt;/span&gt;" style="rounded=0;whiteSpace=wrap;html=1;" parent="1" vertex="1">
          <mxGeometry x="569.76" y="642.5" width="80" height="80" as="geometry" />
        </mxCell>
        <mxCell id="l5VGxjxB3sV_cJbCo6qy-30" value="&lt;font style=&quot;font-size: 24px;&quot;&gt;...&lt;/font&gt;" style="rounded=0;whiteSpace=wrap;html=1;" parent="1" vertex="1">
          <mxGeometry x="729.28" y="642.5" width="80" height="80" as="geometry" />
        </mxCell>
        <mxCell id="l5VGxjxB3sV_cJbCo6qy-31" value="&lt;span style=&quot;font-size: 24px;&quot;&gt;0&lt;/span&gt;" style="rounded=0;whiteSpace=wrap;html=1;" parent="1" vertex="1">
          <mxGeometry x="809.76" y="642.5" width="80" height="80" as="geometry" />
        </mxCell>
        <mxCell id="l5VGxjxB3sV_cJbCo6qy-32" value="&lt;span style=&quot;font-size: 24px;&quot;&gt;1&lt;/span&gt;" style="rounded=0;whiteSpace=wrap;html=1;" parent="1" vertex="1">
          <mxGeometry x="889.76" y="642.5" width="80" height="80" as="geometry" />
        </mxCell>
        <mxCell id="l5VGxjxB3sV_cJbCo6qy-33" value="&lt;span style=&quot;font-size: 24px;&quot;&gt;1&lt;/span&gt;" style="rounded=0;whiteSpace=wrap;html=1;" parent="1" vertex="1">
          <mxGeometry x="969.76" y="642.5" width="80" height="80" as="geometry" />
        </mxCell>
        <mxCell id="l5VGxjxB3sV_cJbCo6qy-34" value="&lt;span style=&quot;font-size: 24px;&quot;&gt;0&lt;/span&gt;" style="rounded=0;whiteSpace=wrap;html=1;" parent="1" vertex="1">
          <mxGeometry x="649.28" y="642.5" width="80" height="80" as="geometry" />
        </mxCell>
        <mxCell id="BSsgZbuN6MQHefrWez_5-9" value="&lt;font style=&quot;font-size: 24px;&quot;&gt;0&lt;/font&gt;" style="rounded=0;whiteSpace=wrap;html=1;" parent="1" vertex="1">
          <mxGeometry x="410" y="250" width="80" height="80" as="geometry" />
        </mxCell>
        <mxCell id="BSsgZbuN6MQHefrWez_5-10" value="&lt;span style=&quot;font-size: 24px;&quot;&gt;0&lt;/span&gt;" style="rounded=0;whiteSpace=wrap;html=1;" parent="1" vertex="1">
          <mxGeometry x="490" y="250" width="80" height="80" as="geometry" />
        </mxCell>
        <mxCell id="BSsgZbuN6MQHefrWez_5-11" value="&lt;span style=&quot;font-size: 24px;&quot;&gt;1&lt;/span&gt;" style="rounded=0;whiteSpace=wrap;html=1;" parent="1" vertex="1">
          <mxGeometry x="570" y="250" width="80" height="80" as="geometry" />
        </mxCell>
        <mxCell id="BSsgZbuN6MQHefrWez_5-12" value="&lt;font style=&quot;font-size: 24px;&quot;&gt;...&lt;/font&gt;" style="rounded=0;whiteSpace=wrap;html=1;" parent="1" vertex="1">
          <mxGeometry x="729.52" y="250" width="80" height="80" as="geometry" />
        </mxCell>
        <mxCell id="BSsgZbuN6MQHefrWez_5-13" value="&lt;span style=&quot;font-size: 24px;&quot;&gt;1&lt;/span&gt;" style="rounded=0;whiteSpace=wrap;html=1;" parent="1" vertex="1">
          <mxGeometry x="810" y="250" width="80" height="80" as="geometry" />
        </mxCell>
        <mxCell id="BSsgZbuN6MQHefrWez_5-14" value="&lt;span style=&quot;font-size: 24px;&quot;&gt;0&lt;/span&gt;" style="rounded=0;whiteSpace=wrap;html=1;" parent="1" vertex="1">
          <mxGeometry x="890" y="250" width="80" height="80" as="geometry" />
        </mxCell>
        <mxCell id="BSsgZbuN6MQHefrWez_5-15" value="&lt;span style=&quot;font-size: 24px;&quot;&gt;0&lt;/span&gt;" style="rounded=0;whiteSpace=wrap;html=1;" parent="1" vertex="1">
          <mxGeometry x="970" y="250" width="80" height="80" as="geometry" />
        </mxCell>
        <mxCell id="BSsgZbuN6MQHefrWez_5-16" value="&lt;span style=&quot;font-size: 24px;&quot;&gt;1&lt;/span&gt;" style="rounded=0;whiteSpace=wrap;html=1;" parent="1" vertex="1">
          <mxGeometry x="649.52" y="249.99999999999997" width="80" height="80" as="geometry" />
        </mxCell>
        <mxCell id="BSsgZbuN6MQHefrWez_5-17" value="&lt;span style=&quot;font-size: 24px;&quot;&gt;1&lt;/span&gt;" style="rounded=0;whiteSpace=wrap;html=1;" parent="1" vertex="1">
          <mxGeometry x="410" y="330.01" width="80" height="80" as="geometry" />
        </mxCell>
        <mxCell id="BSsgZbuN6MQHefrWez_5-18" value="&lt;span style=&quot;font-size: 24px;&quot;&gt;1&lt;/span&gt;" style="rounded=0;whiteSpace=wrap;html=1;" parent="1" vertex="1">
          <mxGeometry x="490" y="330.01" width="80" height="80" as="geometry" />
        </mxCell>
        <mxCell id="BSsgZbuN6MQHefrWez_5-19" value="&lt;span style=&quot;font-size: 24px;&quot;&gt;0&lt;/span&gt;" style="rounded=0;whiteSpace=wrap;html=1;" parent="1" vertex="1">
          <mxGeometry x="570" y="330.01" width="80" height="80" as="geometry" />
        </mxCell>
        <mxCell id="BSsgZbuN6MQHefrWez_5-20" value="&lt;font style=&quot;font-size: 24px;&quot;&gt;...&lt;/font&gt;" style="rounded=0;whiteSpace=wrap;html=1;" parent="1" vertex="1">
          <mxGeometry x="729.52" y="330.01" width="80" height="80" as="geometry" />
        </mxCell>
        <mxCell id="BSsgZbuN6MQHefrWez_5-21" value="&lt;span style=&quot;font-size: 24px;&quot;&gt;0&lt;/span&gt;" style="rounded=0;whiteSpace=wrap;html=1;" parent="1" vertex="1">
          <mxGeometry x="649.52" y="330.01" width="80" height="80" as="geometry" />
        </mxCell>
        <mxCell id="BSsgZbuN6MQHefrWez_5-22" value="&lt;span style=&quot;font-size: 24px;&quot;&gt;0&lt;/span&gt;" style="rounded=0;whiteSpace=wrap;html=1;" parent="1" vertex="1">
          <mxGeometry x="810" y="330.01" width="80" height="80" as="geometry" />
        </mxCell>
        <mxCell id="BSsgZbuN6MQHefrWez_5-23" value="&lt;span style=&quot;font-size: 24px;&quot;&gt;1&lt;/span&gt;" style="rounded=0;whiteSpace=wrap;html=1;" parent="1" vertex="1">
          <mxGeometry x="890" y="330.01" width="80" height="80" as="geometry" />
        </mxCell>
        <mxCell id="BSsgZbuN6MQHefrWez_5-24" value="&lt;span style=&quot;font-size: 24px;&quot;&gt;1&lt;/span&gt;" style="rounded=0;whiteSpace=wrap;html=1;" parent="1" vertex="1">
          <mxGeometry x="970" y="330.01" width="80" height="80" as="geometry" />
        </mxCell>
      </root>
    </mxGraphModel>
  </diagram>
</mxfile>
